<svg id="f5860e3c-93a4-4c8c-a139-2d0f68b42f38" data-name="Layer 1" xmlns="http://www.w3.org/2000/svg" width="1105.328" height="700.707"><path d="M100.882 714.534c9.704 35.869 42.94 58.084 42.94 58.084s17.504-35.941 7.8-71.81-42.94-58.084-42.94-58.084-17.503 35.94-7.8 71.81z" transform="translate(-47.336 -99.646)" fill="#3f3d56"/><path d="M146.28 773.816l-1.324-.072c-.404-.022-40.659-2.503-67.288-28.425-26.629-25.922-30.191-66.096-30.224-66.5l-.108-1.321 1.325.072c.403.022 40.658 2.503 67.287 28.425 26.63 25.923 30.192 66.096 30.225 66.5zM49.9 679.993c.873 7.172 6.13 41.032 29.383 63.666 23.253 22.637 57.24 26.982 64.434 27.662-.874-7.173-6.13-41.03-29.384-63.666C91.063 685 57.09 680.67 49.9 679.993z" transform="translate(-47.336 -99.646)" fill="#3f3d56"/><circle cx="886.161" cy="630.531" r="25.531" fill="#3f3d56"/><path fill="#d0cde1" d="M201.525 378.44h348.28v295.85h-348.28z"/><path d="M542.853 734.629H190.8V435.002h352.054zm-348.274-3.78h344.494V438.782H194.58z" transform="translate(-47.336 -99.646)" fill="#3f3d56"/><path d="M415.91 357.046l-7.138 8.436a6.873 6.873 0 01-10.183 0l-7.138-8.436v-58.611h24.46z" transform="translate(-47.336 -99.646)" fill="#6c63ff"/><path d="M442.601 250.873h-13.14a31.104 31.104 0 005.474-17.665c0-17.262-13.993-47.562-31.254-47.562s-31.255 30.3-31.255 47.562a31.104 31.104 0 005.474 17.665h-13.14a10.03 10.03 0 00-10 10v7.178a10.03 10.03 0 0010 10h77.841a10.03 10.03 0 0010-10v-7.178a10.03 10.03 0 00-10-10z" transform="translate(-47.336 -99.646)" fill="#3f3d56"/><path d="M403.68 375.963a10.458 10.458 0 01-8.436-4.219l-10.908-14.543V256.668h38.69V357.2l-10.909 14.543a10.458 10.458 0 01-8.436 4.219zm-17.344-19.43l10.508 14.011a8.546 8.546 0 0013.674 0l10.507-14.01v-97.866h-34.689z" transform="translate(-47.336 -99.646)" fill="#3f3d56"/><path d="M415.68 408.646a12 12 0 01-24 0c0-6.627 12-20 12-20s12 13.373 12 20z" transform="translate(-47.336 -99.646)" fill="#6c63ff"/><path d="M542.68 478.646a139.001 139.001 0 01-278 0z" transform="translate(-47.336 -99.646)" fill="#6c63ff" opacity=".2"/><path d="M518.67 478.086a114.99 114.99 0 01-229.98 0z" transform="translate(-47.336 -99.646)" fill="#6c63ff"/><circle cx="266.345" cy="32" r="32" fill="#3f3d56"/><circle cx="356.345" cy="32" r="32" fill="#6c63ff"/><circle cx="446.345" cy="32" r="32" fill="#d0cde1"/><path fill="#3f3d56" d="M35.252 672.996h652.894v2.315H35.252z"/><path d="M957.697 774.646v-425h194.967v425zm2.806-422.194V771.84h189.356V352.45z" transform="translate(-47.336 -99.646)" fill="#3f3d56"/><path transform="rotate(90 1080.635 489.357)" fill="#d0cde1" d="M897.384 499.729h314.191v126.238H897.384z"/><path transform="rotate(90 1080.635 400.99)" fill="#6c63ff" d="M1016.608 436.61h75.743v75.743h-75.743z"/><path transform="rotate(150 1073.617 561.386)" fill="#ff6584" d="M1065.701 599.316h36.469v36.469h-36.469z"/><path transform="rotate(90 1056.79 551.073)" fill="#3f3d56" d="M968.918 606.329h123.432v36.469H968.918z"/><path fill="#ffb8b8" d="M789.169 400.407l-54.73 116.151 38.311 21.284 68.11-116.151-51.691-21.284z"/><path opacity=".1" d="M789.169 400.407l-54.73 116.151 38.311 21.284 68.11-116.151-51.691-21.284z"/><path d="M784.207 600.393L718.53 735.396l-37.096 37.095s-51.082.608-31.014 20.068 82.097-3.649 82.097-3.649l-1.825 7.298 40.136-3.649-1.216-14.595-3.649-1.824s2.433-27.974-3.648-33.447 10.946-12.162 10.946-12.162l69.934-121.624z" transform="translate(-47.336 -99.646)" fill="#2f2e41"/><path d="M803.059 491.54s-58.38 34.054-43.177 65.068 20.068 33.447 20.068 33.447l31.014-22.5-5.473-12.771 60.812-35.271s-46.825-35.88-63.244-27.974z" transform="translate(-47.336 -99.646)" fill="#ffb8b8"/><path d="M766.571 585.798l83.313 133.178 8.514 37.096s-30.406 38.311-7.906 40.744 48.041-33.447 49.258-49.866 3.04-26.757 3.04-26.757l6.082 2.432s18.243-29.19 9.121-32.838a141.968 141.968 0 00-16.419-5.473s-13.379-8.514-26.15-5.474c0 0 2.433-9.73 0-13.986S808.05 553.3 808.05 553.3z" transform="translate(-47.336 -99.646)" fill="#2f2e41"/><circle cx="862.752" cy="94.522" r="33.447" fill="#ffb8b8"/><path d="M900.966 215.453s12.162 34.662 9.122 44.392-27.366 55.34-27.366 55.34l3.04 21.284 60.813-93.65s-15.203-20.069-10.946-34.056z" transform="translate(-47.336 -99.646)" fill="#ffb8b8"/><path d="M923.466 474.512l-17.635 72.366s-87.57-52.298-111.894-50.474c0 0 52.906-60.204 72.974-60.204s56.555 38.312 56.555 38.312z" transform="translate(-47.336 -99.646)" fill="#2f2e41"/><path d="M967.251 247.683s-13.987-22.5-31.014-3.04-48.042 70.541-48.042 70.541l2.173-14.538s-19.2 14.538-20.416 33.39-6.081 82.096-6.081 82.096l-7.906 26.758 75.407 43.784 12.162-20.676s45.61 8.514 50.474 3.04-28.327-94.392-28.327-94.392z" transform="translate(-47.336 -99.646)" fill="#575a89"/><path d="M900.966 374.172l-36.487 50.474s-43.785 17.027-36.488 31.014 44.393-21.284 44.393-21.284l54.731-48.042z" transform="translate(-47.336 -99.646)" fill="#ffb8b8"/><path d="M936.845 253.156s-26.757 42.569-27.973 74.799-.913 28.886-.913 28.886l-13.378 18.851 31.622 17.636 16.115-16.723s35.88-10.338 31.622-40.136-6.689-85.137-12.77-85.137-24.325 1.824-24.325 1.824z" transform="translate(-47.336 -99.646)" opacity=".1"/><path d="M938.061 247.075s-26.757 42.568-27.973 74.799 1.824 32.838 1.824 32.838l-16.42 21.893 30.407 16.419 17.635-22.5s35.88-10.339 31.623-40.137-6.69-85.136-12.77-85.136-24.326 1.824-24.326 1.824z" transform="translate(-47.336 -99.646)" fill="#575a89"/><path d="M871.145 187.56s-10.3-49.756 43.644-37.307c0 0 37.098-9.781 53.036 36.34l16.267 48.38-6.343-2.849-2.364 6.423-9.676 3.253-4.863-8.058-1.264 10.334-80.201 14.236s34.56-24.174 32.2-62.583l-6.338 7.813z" transform="translate(-47.336 -99.646)" fill="#2f2e41"/></svg>