<svg id="b788e214-8c62-4533-b5b0-3b3e1bf4c8d8" data-name="Layer 1" xmlns="http://www.w3.org/2000/svg" width="1161.522" height="792.25"><path d="M584.621 93.574h-1.345V91.22h1.009a.673.673 0 00.673-.673V78.435a.673.673 0 00-.673-.673h-1.01v-6.879a14.653 14.653 0 00-14.653-14.653h-1.495v-1.682a.673.673 0 00-.673-.673h-12.112a.673.673 0 00-.673.673v1.682H334.837a14.653 14.653 0 00-14.653 14.653v311.838a14.653 14.653 0 0014.653 14.654h233.785a14.653 14.653 0 0014.654-14.654v-275.69h1.345a.673.673 0 00.673-.672V94.247a.673.673 0 00-.673-.673z" transform="translate(-19.239 -53.875)" fill="#3f3d56"/><path fill="#f2f2f2" d="M313.055 11.94h240.89v319.62h-240.89z"/><path fill="#3f3d56" d="M0 668h1161.522v2H0z"/><path d="M290.491 622.122c2.243 76.794-42.627 104.937-98.938 106.582q-1.962.057-3.906.07-3.918.03-7.759-.13c-50.927-2.115-91.24-29.148-93.325-100.566-2.158-73.909 89.578-169.939 96.461-177.042.006 0 .006 0 .012-.007l.396-.406s104.817 94.712 107.06 171.5z" transform="translate(-19.239 -53.875)" fill="#6c63ff"/><path d="M187.499 717.066l35.77-53.195-35.697 58.917.075 5.986q-3.918.03-7.759-.13l1.775-76.943-.049-.593.065-.115.17-7.27-39.173-56.875 39.127 51.433.139 1.536 1.34-58.133-33.835-58.965 33.931 48.753-.354-120.436v-.401l.012.394 2.246 94.92 30.837-38.556-30.736 46.733.673 51.999 28.376-50.749-28.271 58.394.374 28.913 41.266-70.692-41.14 80.78zm698.74-556.859h-1.49V119.4a23.618 23.618 0 00-23.618-23.619h-86.456a23.618 23.618 0 00-23.619 23.619v223.873a23.618 23.618 0 0023.619 23.619h86.456a23.618 23.618 0 0023.618-23.619V189.255h1.49z" transform="translate(-19.239 -53.875)" fill="#3f3d56"/><path d="M879.72 120.788v223.547a17.639 17.639 0 01-17.636 17.641h-86.873a17.638 17.638 0 01-17.636-17.641V120.788a17.637 17.637 0 0117.636-17.636h10.54a8.379 8.379 0 007.759 11.542h49.53a8.379 8.379 0 007.76-11.542h11.284a17.637 17.637 0 0117.636 17.636z" transform="translate(-19.239 -53.875)" fill="#f2f2f2"/><path fill="#ccc" d="M774.348 79h73.396v2.727h-73.396zm0 8.636h73.396v2.727h-73.396zm0 8.637h73.396V99h-73.396zm-23.275-15.587h16.629v16.629h-16.629zM774.348 273h73.396v2.727h-73.396zm0 8.636h73.396v2.727h-73.396zm0 8.637h73.396V293h-73.396zm-23.275-15.588h16.629v16.629h-16.629z"/><path d="M859.147 434.443H650.425v-4.302h-94.642v4.302H346.201a14.118 14.118 0 00-14.118 14.118v285.804a14.118 14.118 0 0014.118 14.118h512.946a14.118 14.118 0 0014.118-14.118V448.56a14.118 14.118 0 00-14.118-14.118z" transform="translate(-19.239 -53.875)" fill="#3f3d56"/><path fill="#f2f2f2" d="M331.772 405.519h503.325v283.927H331.772z"/><circle cx="583.005" cy="392.613" r="5.162" fill="#6c63ff"/><path d="M887.397 738.159h-49.12v-3.54a.702.702 0 00-.703-.701h-16.841a.702.702 0 00-.702.702v3.539h-10.526v-3.54a.702.702 0 00-.702-.701h-16.841a.702.702 0 00-.702.702v3.539h-10.526v-3.54a.702.702 0 00-.702-.701h-16.841a.702.702 0 00-.702.702v3.539h-10.526v-3.54a.702.702 0 00-.702-.701H734.42a.702.702 0 00-.702.702v3.539h-10.526v-3.54a.702.702 0 00-.702-.701h-16.84a.702.702 0 00-.702.702v3.539H694.42v-3.54a.702.702 0 00-.702-.701h-16.841a.702.702 0 00-.702.702v3.539H665.65v-3.54a.702.702 0 00-.702-.701H533.022a.702.702 0 00-.701.702v3.539h-10.526v-3.54a.702.702 0 00-.702-.701h-16.842a.702.702 0 00-.701.702v3.539h-10.526v-3.54a.702.702 0 00-.702-.701H475.48a.702.702 0 00-.701.702v3.539h-10.526v-3.54a.702.702 0 00-.702-.701h-16.842a.702.702 0 00-.701.702v3.539h-10.526v-3.54a.702.702 0 00-.702-.701h-16.842a.702.702 0 00-.701.702v3.539H406.71v-3.54a.702.702 0 00-.702-.701h-16.842a.702.702 0 00-.701.702v3.539H377.94v-3.54a.702.702 0 00-.702-.701h-16.842a.702.702 0 00-.701.702v3.539h-32.28A16.842 16.842 0 00310.573 755v7.616a16.842 16.842 0 0016.842 16.841h559.982a16.842 16.842 0 0016.842-16.841V755a16.842 16.842 0 00-16.842-16.841z" transform="translate(-19.239 -53.875)" fill="#3f3d56"/><path fill="#e6e6e6" d="M534.788 427.757h141.24v5.248h-141.24zm0 16.619h141.24v5.248h-141.24zm0 16.619h141.24v5.248h-141.24z"/><path fill="#ccc" d="M534.788 427.757h141.24v5.248h-141.24zm0 16.619h141.24v5.248h-141.24zm0 16.619h141.24v5.248h-141.24zM490 431h32v32h-32zm44.788 183.756h141.24v5.248h-141.24zm0 16.62h141.24v5.248h-141.24zm0 16.619h141.24v5.248h-141.24zM490 618h32v32h-32z"/><path d="M943.511 362.922a53.197 53.197 0 00-31.605-16.678l5.198-4.696-5.75-.29-7.115 6.43 6.43 7.115 5.75.29-4.308-4.764a49.359 49.359 0 01-7.872 98.087v4a53.364 53.364 0 0039.272-89.494zm-690.544 0a53.197 53.197 0 0131.605-16.678l-5.198-4.696 5.75-.29 7.115 6.43-6.43 7.115-5.75.29 4.308-4.764a49.359 49.359 0 007.872 98.087v4a53.364 53.364 0 01-39.272-89.494z" transform="translate(-19.239 -53.875)" fill="#3f3d56"/><path fill="#ccc" d="M385.274 27.756h141.24v5.248h-141.24zm0 16.62h141.24v5.248h-141.24zm0 16.619h141.24v5.248h-141.24zM340.486 31h32v32h-32zm44.302 245.757h141.24v5.248h-141.24zm0 16.619h141.24v5.248h-141.24zm0 16.619h141.24v5.248h-141.24zM340 280h32v32h-32z"/><path d="M985.771 381.797l31.894-46.306s27.773-22.27 19.813-26.605-28.8 15.992-28.8 15.992-60.125 46.093-50.21 52.526 27.303 4.393 27.303 4.393z" transform="translate(-19.239 -53.875)" fill="#ffb8b8"/><path d="M990.406 320.986h41.304a144.462 144.462 0 000-49.246h-41.304a88.611 88.611 0 010 49.246z" transform="translate(-19.239 -53.875)" fill="#6c63ff"/><path d="M1097.791 323.336c-12.412-20.973-36.969-21.95-36.969-21.95s-23.929-3.06-39.28 28.881c-14.307 29.773-34.053 58.519-3.178 65.489l5.577-17.358 3.454 18.65a120.807 120.807 0 0013.21.226c33.065-1.068 64.554.312 63.54-11.553-1.348-15.773 5.59-42.205-6.354-62.385z" transform="translate(-19.239 -53.875)" fill="#2f2e41"/><path d="M1031.796 452.616l-15.9 36.57 55.65 8.745s26.235-35.775 28.62-38.16z" transform="translate(-19.239 -53.875)" fill="#ffb8b8"/><circle cx="1038.792" cy="289.825" r="29.415" fill="#ffb8b8"/><path d="M1050.876 365.165s13.515 30.21 11.925 33.39 28.62-16.695 28.62-16.695-12.72-21.465-11.925-24.645zm44.52 12.72s23.85-13.515 37.366 23.85c0 0 44.52 52.47 36.57 62.011s-38.16-23.055-38.16-23.055l-19.08-19.876s-27.03-7.155-24.646-22.26 7.95-20.67 7.95-20.67zm-55.65 18.285l-55.65-15.9s-29.416-11.925-28.621-4.77 54.06 47.7 71.55 45.316 12.72-24.646 12.72-24.646z" transform="translate(-19.239 -53.875)" fill="#ffb8b8"/><path d="M1071.546 390.605s-18.285-2.385-22.26 1.59-11.528.398-11.528.398l-12.72 23.055s-9.142 13.118-1.987 25.838-3.18 29.415-3.18 29.415 57.24 0 69.165 6.36 26.298-53.068 26.298-53.068-14.77-18.085-10.795-29.215 1.59-19.875 1.59-19.875l-17.49 1.59z" transform="translate(-19.239 -53.875)" fill="#d0cde1"/><path fill="#ffb8b8" d="M983.936 688.124l6.361 61.216 24.645-12.72-7.95-53.266-23.056 4.77zm93.016-.795l20.696 55.341 19.875-14.31-24.67-53.751-15.901 12.72z"/><path d="M1034.18 769.824a49.65 49.65 0 01-5.564 12.72c-3.975 6.36-13.515 3.18-13.515 3.18s-11.13-8.745-13.516-4.77-15.105 23.85-15.105 23.85-42.135 34.981-6.36 40.546 42.93-20.67 42.93-20.67 27.031-9.54 27.826-19.08-16.695-35.776-16.695-35.776zm83.477 11.59s-12.72-3.975-11.925 2.385 5.565 31.8 5.565 31.8-8.745 35.776 15.9 29.416 25.44-40.545 25.44-40.545 12.72-45.316 3.18-46.11-32.595-3.18-32.595-3.18 14.31 23.054-5.565 26.234z" transform="translate(-19.239 -53.875)" fill="#2f2e41"/><path fill="#2f2e41" d="M1073.065 267.439l-24.261-12.708-33.503 5.199-6.932 30.615 17.255-.664 4.82-11.247v11.062l7.962-.307 4.621-17.906 2.889 19.062 28.304-.578-1.155-22.528z"/><path d="M1080.291 495.546l-66.78-15.105s-33.39 57.24-38.16 104.941-26.236 162.182 7.95 163.772 54.06 1.59 55.65-1.59-16.695-128.791-16.695-128.791 38.955 154.231 60.42 143.896 45.316-23.85 44.52-31.8-52.47-92.221-52.47-92.221l7.155-73.14s8.745-29.416-6.36-56.446z" transform="translate(-19.239 -53.875)" fill="#2f2e41"/><path d="M1032.162 475.672h41.304a144.462 144.462 0 000-49.247h-41.304a88.612 88.612 0 010 49.247z" transform="translate(-19.239 -53.875)" fill="#6c63ff"/><path d="M1152.637 439.896l-69.96-1.59s-31.006-23.85-31.801-9.54 32.595 22.26 32.595 22.26 71.783 25.758 82.797 14.47z" transform="translate(-19.239 -53.875)" fill="#ffb8b8"/><circle cx="375.864" cy="174.031" r="23.864" fill="#6c63ff"/><circle cx="439.5" cy="174.031" r="19.5" fill="#6c63ff"/><circle cx="503.136" cy="174.031" r="11.864" fill="#6c63ff"/><circle cx="768.978" cy="177.02" r="12.536" fill="#6c63ff"/><circle cx="802.409" cy="177.02" r="9.967" fill="#6c63ff"/><circle cx="835.839" cy="177.02" r="6.536" fill="#6c63ff"/><circle cx="583" cy="538.032" r="56" fill="#6c63ff"/><path fill="#d0cde1" d="M603.834 550.347l-20.888-42.188-20.78 42.242 11.742-.015v17.518h18.175v-17.542l11.751-.015z"/></svg>